STARTFONT 2.1
FONT -FontForge-Dina for Powerline-Bold-I-Normal--13-100-96-96-M-80-ISO10646-1
SIZE 10 96 96
FONTBOUNDINGBOX 8 16 0 -4
COMMENT "Generated by fontforge, http://fontforge.sourceforge.net"
COMMENT "Jørgen Ibsen 2005. Use, distribute, modify, for free. v2.89"
STARTPROPERTIES 34
FOUNDRY "FontForge"
FAMILY_NAME "Dina for Powerline"
WEIGHT_NAME "Bold"
SLANT "I"
SETWIDTH_NAME "Normal"
ADD_STYLE_NAME ""
PIXEL_SIZE 13
POINT_SIZE 100
RESOLUTION_X 96
RESOLUTION_Y 96
SPACING "M"
AVERAGE_WIDTH 80
CHARSET_REGISTRY "ISO10646"
CHARSET_ENCODING "1"
FONTNAME_REGISTRY ""
CHARSET_COLLECTIONS "ISO10646-1"
FONT_NAME "DinaItalicForPowerline"
FACE_NAME "Dina Italic for Powerline"
FONT_VERSION "001.000"
FONT_ASCENT 10
FONT_DESCENT 3
UNDERLINE_POSITION -1
UNDERLINE_THICKNESS 1
X_HEIGHT 6
CAP_HEIGHT 8
RAW_ASCENT 800
RAW_DESCENT 200
ITALIC_ANGLE 6480
NORM_SPACE 8
RELATIVE_WEIGHT 70
RELATIVE_SETWIDTH 50
FIGURE_WIDTH 8
AVG_LOWERCASE_WIDTH 80
AVG_UPPERCASE_WIDTH 80
ENDPROPERTIES
CHARS 256
STARTCHAR uni0000
ENCODING 0
SWIDTH 615 0
DWIDTH 8 0
BBX 8 16 0 -4
BITMAP
D5
D5
00
C1
00
C1
C1
00
C1
00
C1
C1
00
C1
00
D5
ENDCHAR
STARTCHAR uni0001
ENCODING 1
SWIDTH 615 0
DWIDTH 8 0
BBX 6 8 1 1
BITMAP
FC
84
84
84
84
84
84
FC
ENDCHAR
STARTCHAR uni0002
ENCODING 2
SWIDTH 615 0
DWIDTH 8 0
BBX 6 8 1 1
BITMAP
FC
84
84
84
84
84
84
FC
ENDCHAR
STARTCHAR uni0003
ENCODING 3
SWIDTH 615 0
DWIDTH 8 0
BBX 6 8 1 1
BITMAP
FC
84
84
84
84
84
84
FC
ENDCHAR
STARTCHAR uni0004
ENCODING 4
SWIDTH 615 0
DWIDTH 8 0
BBX 6 8 1 1
BITMAP
FC
84
84
84
84
84
84
FC
ENDCHAR
STARTCHAR uni0005
ENCODING 5
SWIDTH 615 0
DWIDTH 8 0
BBX 6 8 1 1
BITMAP
FC
84
84
84
84
84
84
FC
ENDCHAR
STARTCHAR uni0006
ENCODING 6
SWIDTH 615 0
DWIDTH 8 0
BBX 6 8 1 1
BITMAP
FC
84
84
84
84
84
84
FC
ENDCHAR
STARTCHAR uni0007
ENCODING 7
SWIDTH 615 0
DWIDTH 8 0
BBX 6 8 1 1
BITMAP
FC
84
84
84
84
84
84
FC
ENDCHAR
STARTCHAR uni0008
ENCODING 8
SWIDTH 615 0
DWIDTH 8 0
BBX 6 8 1 1
BITMAP
FC
84
84
84
84
84
84
FC
ENDCHAR
STARTCHAR uni0009
ENCODING 9
SWIDTH 615 0
DWIDTH 8 0
BBX 1 1 7 -4
BITMAP
00
ENDCHAR
STARTCHAR uni000A
ENCODING 10
SWIDTH 615 0
DWIDTH 8 0
BBX 6 8 1 1
BITMAP
FC
84
84
84
84
84
84
FC
ENDCHAR
STARTCHAR uni000B
ENCODING 11
SWIDTH 615 0
DWIDTH 8 0
BBX 6 8 1 1
BITMAP
FC
84
84
84
84
84
84
FC
ENDCHAR
STARTCHAR uni000C
ENCODING 12
SWIDTH 615 0
DWIDTH 8 0
BBX 6 8 1 1
BITMAP
FC
84
84
84
84
84
84
FC
ENDCHAR
STARTCHAR uni000D
ENCODING 13
SWIDTH 615 0
DWIDTH 8 0
BBX 6 8 1 1
BITMAP
FC
84
84
84
84
84
84
FC
ENDCHAR
STARTCHAR uni000E
ENCODING 14
SWIDTH 615 0
DWIDTH 8 0
BBX 5 8 0 4
BITMAP
18
18
18
18
18
18
18
F8
ENDCHAR
STARTCHAR uni000F
ENCODING 15
SWIDTH 615 0
DWIDTH 8 0
BBX 5 8 3 4
BITMAP
C0
C0
C0
C0
C0
C0
C0
F8
ENDCHAR
STARTCHAR uni0010
ENCODING 16
SWIDTH 615 0
DWIDTH 8 0
BBX 5 9 3 -4
BITMAP
F8
C0
C0
C0
C0
C0
C0
C0
C0
ENDCHAR
STARTCHAR uni0011
ENCODING 17
SWIDTH 615 0
DWIDTH 8 0
BBX 5 9 0 -4
BITMAP
F8
18
18
18
18
18
18
18
18
ENDCHAR
STARTCHAR uni0012
ENCODING 18
SWIDTH 615 0
DWIDTH 8 0
BBX 8 1 0 4
BITMAP
FF
ENDCHAR
STARTCHAR uni0013
ENCODING 19
SWIDTH 615 0
DWIDTH 8 0
BBX 2 16 3 -4
BITMAP
C0
C0
C0
C0
C0
C0
C0
C0
C0
C0
C0
C0
C0
C0
C0
C0
ENDCHAR
STARTCHAR uni0014
ENCODING 20
SWIDTH 615 0
DWIDTH 8 0
BBX 5 16 0 -4
BITMAP
18
18
18
18
18
18
18
F8
18
18
18
18
18
18
18
18
ENDCHAR
STARTCHAR uni0015
ENCODING 21
SWIDTH 615 0
DWIDTH 8 0
BBX 8 8 0 4
BITMAP
18
18
18
18
18
18
18
FF
ENDCHAR
STARTCHAR uni0016
ENCODING 22
SWIDTH 615 0
DWIDTH 8 0
BBX 5 16 3 -4
BITMAP
C0
C0
C0
C0
C0
C0
C0
F8
C0
C0
C0
C0
C0
C0
C0
C0
ENDCHAR
STARTCHAR uni0017
ENCODING 23
SWIDTH 615 0
DWIDTH 8 0
BBX 8 9 0 -4
BITMAP
FF
18
18
18
18
18
18
18
18
ENDCHAR
STARTCHAR uni0018
ENCODING 24
SWIDTH 615 0
DWIDTH 8 0
BBX 8 16 0 -4
BITMAP
18
18
18
18
18
18
18
FF
18
18
18
18
18
18
18
18
ENDCHAR
STARTCHAR uni0019
ENCODING 25
SWIDTH 615 0
DWIDTH 8 0
BBX 8 16 0 -4
BITMAP
AA
55
AA
55
AA
55
AA
55
AA
55
AA
55
AA
55
AA
55
ENDCHAR
STARTCHAR uni001A
ENCODING 26
SWIDTH 615 0
DWIDTH 8 0
BBX 7 7 0 0
BITMAP
18
18
7E
30
FC
60
60
ENDCHAR
STARTCHAR uni001B
ENCODING 27
SWIDTH 615 0
DWIDTH 8 0
BBX 7 7 0 0
BITMAP
0E
38
E0
38
0C
00
FC
ENDCHAR
STARTCHAR uni001C
ENCODING 28
SWIDTH 615 0
DWIDTH 8 0
BBX 7 7 0 0
BITMAP
FE
6C
6C
6C
D8
D8
D8
ENDCHAR
STARTCHAR uni001D
ENCODING 29
SWIDTH 615 0
DWIDTH 8 0
BBX 7 7 0 0
BITMAP
60
38
0E
38
E0
00
FC
ENDCHAR
STARTCHAR uni001E
ENCODING 30
SWIDTH 615 0
DWIDTH 8 0
BBX 8 9 0 0
BITMAP
0E
1B
18
30
7C
30
60
C0
FC
ENDCHAR
STARTCHAR uni001F
ENCODING 31
SWIDTH 615 0
DWIDTH 8 0
BBX 4 1 2 3
BITMAP
F0
ENDCHAR
STARTCHAR space
ENCODING 32
SWIDTH 615 0
DWIDTH 8 0
BBX 1 1 7 -4
BITMAP
00
ENDCHAR
STARTCHAR exclam
ENCODING 33
SWIDTH 615 0
DWIDTH 8 0
BBX 4 10 2 0
BITMAP
30
30
30
60
60
60
00
00
C0
C0
ENDCHAR
STARTCHAR quotedbl
ENCODING 34
SWIDTH 615 0
DWIDTH 8 0
BBX 6 3 1 8
BITMAP
CC
CC
CC
ENDCHAR
STARTCHAR numbersign
ENCODING 35
SWIDTH 615 0
DWIDTH 8 0
BBX 7 8 0 0
BITMAP
34
34
7E
34
68
FC
68
68
ENDCHAR
STARTCHAR dollar
ENCODING 36
SWIDTH 615 0
DWIDTH 8 0
BBX 7 11 0 -1
BITMAP
08
1C
3A
68
70
38
1C
2C
B8
70
20
ENDCHAR
STARTCHAR percent
ENCODING 37
SWIDTH 615 0
DWIDTH 8 0
BBX 8 11 0 -1
BITMAP
30
68
68
33
0F
3C
F0
CC
1A
1A
0C
ENDCHAR
STARTCHAR ampersand
ENCODING 38
SWIDTH 615 0
DWIDTH 8 0
BBX 7 10 0 0
BITMAP
0C
16
36
3C
30
5A
CC
D8
D8
76
ENDCHAR
STARTCHAR quotesingle
ENCODING 39
SWIDTH 615 0
DWIDTH 8 0
BBX 2 3 3 8
BITMAP
C0
C0
C0
ENDCHAR
STARTCHAR parenleft
ENCODING 40
SWIDTH 615 0
DWIDTH 8 0
BBX 6 13 1 -2
BITMAP
0C
18
30
60
60
C0
C0
C0
C0
C0
60
60
30
ENDCHAR
STARTCHAR parenright
ENCODING 41
SWIDTH 615 0
DWIDTH 8 0
BBX 6 13 1 -2
BITMAP
30
18
18
0C
0C
0C
0C
0C
18
18
30
60
C0
ENDCHAR
STARTCHAR asterisk
ENCODING 42
SWIDTH 615 0
DWIDTH 8 0
BBX 7 5 0 2
BITMAP
6C
38
FE
70
D8
ENDCHAR
STARTCHAR plus
ENCODING 43
SWIDTH 615 0
DWIDTH 8 0
BBX 7 5 0 2
BITMAP
18
18
FE
30
30
ENDCHAR
STARTCHAR comma
ENCODING 44
SWIDTH 615 0
DWIDTH 8 0
BBX 4 4 0 -2
BITMAP
30
30
60
C0
ENDCHAR
STARTCHAR hyphen
ENCODING 45
SWIDTH 615 0
DWIDTH 8 0
BBX 6 1 1 4
BITMAP
FC
ENDCHAR
STARTCHAR period
ENCODING 46
SWIDTH 615 0
DWIDTH 8 0
BBX 2 2 2 0
BITMAP
C0
C0
ENDCHAR
STARTCHAR slash
ENCODING 47
SWIDTH 615 0
DWIDTH 8 0
BBX 8 10 0 0
BITMAP
03
03
06
0C
18
18
30
60
C0
C0
ENDCHAR
STARTCHAR zero
ENCODING 48
SWIDTH 615 0
DWIDTH 8 0
BBX 8 9 0 0
BITMAP
1E
33
33
6E
7E
76
CC
CC
78
ENDCHAR
STARTCHAR one
ENCODING 49
SWIDTH 615 0
DWIDTH 8 0
BBX 6 9 1 0
BITMAP
0C
1C
2C
58
18
18
30
30
FC
ENDCHAR
STARTCHAR two
ENCODING 50
SWIDTH 615 0
DWIDTH 8 0
BBX 8 9 0 0
BITMAP
1E
33
03
06
0C
18
30
60
FC
ENDCHAR
STARTCHAR three
ENCODING 51
SWIDTH 615 0
DWIDTH 8 0
BBX 8 9 0 0
BITMAP
1E
33
03
06
1C
06
06
CC
78
ENDCHAR
STARTCHAR four
ENCODING 52
SWIDTH 615 0
DWIDTH 8 0
BBX 7 9 1 0
BITMAP
0E
1E
36
6C
CC
FE
18
18
18
ENDCHAR
STARTCHAR five
ENCODING 53
SWIDTH 615 0
DWIDTH 8 0
BBX 8 9 0 0
BITMAP
3F
30
30
60
7C
06
06
CC
78
ENDCHAR
STARTCHAR six
ENCODING 54
SWIDTH 615 0
DWIDTH 8 0
BBX 7 9 0 0
BITMAP
0E
18
30
60
7C
C6
C6
CC
78
ENDCHAR
STARTCHAR seven
ENCODING 55
SWIDTH 615 0
DWIDTH 8 0
BBX 7 9 1 0
BITMAP
7E
06
0C
18
30
60
60
C0
C0
ENDCHAR
STARTCHAR eight
ENCODING 56
SWIDTH 615 0
DWIDTH 8 0
BBX 8 9 0 0
BITMAP
1E
33
63
66
3C
66
C6
CC
78
ENDCHAR
STARTCHAR nine
ENCODING 57
SWIDTH 615 0
DWIDTH 8 0
BBX 7 9 1 0
BITMAP
3C
66
C6
C6
7C
0C
18
30
E0
ENDCHAR
STARTCHAR colon
ENCODING 58
SWIDTH 615 0
DWIDTH 8 0
BBX 3 7 2 0
BITMAP
60
60
00
00
00
C0
C0
ENDCHAR
STARTCHAR semicolon
ENCODING 59
SWIDTH 615 0
DWIDTH 8 0
BBX 5 9 0 -2
BITMAP
18
18
00
00
00
30
30
60
C0
ENDCHAR
STARTCHAR less
ENCODING 60
SWIDTH 615 0
DWIDTH 8 0
BBX 6 9 1 0
BITMAP
0C
18
30
60
C0
60
60
30
30
ENDCHAR
STARTCHAR equal
ENCODING 61
SWIDTH 615 0
DWIDTH 8 0
BBX 7 3 0 3
BITMAP
7E
00
FC
ENDCHAR
STARTCHAR greater
ENCODING 62
SWIDTH 615 0
DWIDTH 8 0
BBX 6 9 1 0
BITMAP
30
30
18
18
0C
18
30
60
C0
ENDCHAR
STARTCHAR question
ENCODING 63
SWIDTH 615 0
DWIDTH 8 0
BBX 6 10 2 0
BITMAP
78
CC
0C
18
30
60
60
00
C0
C0
ENDCHAR
STARTCHAR at
ENCODING 64
SWIDTH 615 0
DWIDTH 8 0
BBX 8 9 0 0
BITMAP
1E
33
33
66
6E
6C
CC
C0
7C
ENDCHAR
STARTCHAR A
ENCODING 65
SWIDTH 615 0
DWIDTH 8 0
BBX 7 9 0 0
BITMAP
06
0E
1E
36
36
7E
66
C6
C6
ENDCHAR
STARTCHAR B
ENCODING 66
SWIDTH 615 0
DWIDTH 8 0
BBX 8 9 0 0
BITMAP
3E
33
33
66
7C
66
C6
CC
F8
ENDCHAR
STARTCHAR C
ENCODING 67
SWIDTH 615 0
DWIDTH 8 0
BBX 8 9 0 0
BITMAP
1E
33
30
60
60
60
C0
CC
78
ENDCHAR
STARTCHAR D
ENCODING 68
SWIDTH 615 0
DWIDTH 8 0
BBX 8 9 0 0
BITMAP
3C
36
33
63
66
66
CC
D8
F0
ENDCHAR
STARTCHAR E
ENCODING 69
SWIDTH 615 0
DWIDTH 8 0
BBX 8 9 0 0
BITMAP
3F
30
30
60
7C
60
C0
C0
FC
ENDCHAR
STARTCHAR F
ENCODING 70
SWIDTH 615 0
DWIDTH 8 0
BBX 8 9 0 0
BITMAP
3F
30
30
60
7C
60
C0
C0
C0
ENDCHAR
STARTCHAR G
ENCODING 71
SWIDTH 615 0
DWIDTH 8 0
BBX 8 9 0 0
BITMAP
1E
33
30
60
6E
66
CC
CC
78
ENDCHAR
STARTCHAR H
ENCODING 72
SWIDTH 615 0
DWIDTH 8 0
BBX 8 9 0 0
BITMAP
33
33
33
66
7E
66
CC
CC
CC
ENDCHAR
STARTCHAR I
ENCODING 73
SWIDTH 615 0
DWIDTH 8 0
BBX 8 9 0 0
BITMAP
3F
0C
0C
18
18
18
30
30
FC
ENDCHAR
STARTCHAR J
ENCODING 74
SWIDTH 615 0
DWIDTH 8 0
BBX 8 9 0 0
BITMAP
1F
03
03
06
06
06
CC
CC
78
ENDCHAR
STARTCHAR K
ENCODING 75
SWIDTH 615 0
DWIDTH 8 0
BBX 8 9 0 0
BITMAP
33
36
34
6C
78
78
D8
CC
CC
ENDCHAR
STARTCHAR L
ENCODING 76
SWIDTH 615 0
DWIDTH 8 0
BBX 6 9 0 0
BITMAP
30
30
30
60
60
60
C0
C0
FC
ENDCHAR
STARTCHAR M
ENCODING 77
SWIDTH 615 0
DWIDTH 8 0
BBX 8 9 0 0
BITMAP
23
37
7F
6B
6A
66
C6
CC
CC
ENDCHAR
STARTCHAR N
ENCODING 78
SWIDTH 615 0
DWIDTH 8 0
BBX 8 9 0 0
BITMAP
33
3B
3F
6E
66
66
CC
CC
CC
ENDCHAR
STARTCHAR O
ENCODING 79
SWIDTH 615 0
DWIDTH 8 0
BBX 8 9 0 0
BITMAP
1E
33
33
66
66
66
CC
CC
78
ENDCHAR
STARTCHAR P
ENCODING 80
SWIDTH 615 0
DWIDTH 8 0
BBX 8 9 0 0
BITMAP
3E
33
33
66
7C
60
C0
C0
C0
ENDCHAR
STARTCHAR Q
ENCODING 81
SWIDTH 615 0
DWIDTH 8 0
BBX 8 10 0 -1
BITMAP
1E
33
33
63
66
66
CC
DC
76
06
ENDCHAR
STARTCHAR R
ENCODING 82
SWIDTH 615 0
DWIDTH 8 0
BBX 8 9 0 0
BITMAP
3E
33
33
66
7C
78
CC
CC
CC
ENDCHAR
STARTCHAR S
ENCODING 83
SWIDTH 615 0
DWIDTH 8 0
BBX 8 9 0 0
BITMAP
1E
33
60
60
3C
06
06
CC
78
ENDCHAR
STARTCHAR T
ENCODING 84
SWIDTH 615 0
DWIDTH 8 0
BBX 6 9 1 0
BITMAP
FC
30
30
60
60
60
C0
C0
C0
ENDCHAR
STARTCHAR U
ENCODING 85
SWIDTH 615 0
DWIDTH 8 0
BBX 8 9 0 0
BITMAP
33
33
63
66
66
C6
CC
CC
78
ENDCHAR
STARTCHAR V
ENCODING 86
SWIDTH 615 0
DWIDTH 8 0
BBX 7 9 1 0
BITMAP
C6
CC
CC
D8
D8
F0
F0
E0
C0
ENDCHAR
STARTCHAR W
ENCODING 87
SWIDTH 615 0
DWIDTH 8 0
BBX 8 9 0 0
BITMAP
63
63
63
56
D6
D6
FC
FC
C8
ENDCHAR
STARTCHAR X
ENCODING 88
SWIDTH 615 0
DWIDTH 8 0
BBX 8 9 0 0
BITMAP
33
33
36
3C
18
3C
6C
CC
CC
ENDCHAR
STARTCHAR Y
ENCODING 89
SWIDTH 615 0
DWIDTH 8 0
BBX 7 9 1 0
BITMAP
C6
C6
CC
78
70
60
60
C0
C0
ENDCHAR
STARTCHAR Z
ENCODING 90
SWIDTH 615 0
DWIDTH 8 0
BBX 8 9 0 0
BITMAP
3F
03
06
0C
18
30
60
C0
FC
ENDCHAR
STARTCHAR bracketleft
ENCODING 91
SWIDTH 615 0
DWIDTH 8 0
BBX 6 13 1 -2
BITMAP
3C
30
30
30
60
60
60
60
60
C0
C0
C0
F0
ENDCHAR
STARTCHAR backslash
ENCODING 92
SWIDTH 615 0
DWIDTH 8 0
BBX 6 12 1 -1
BITMAP
C0
C0
60
60
60
30
30
18
18
18
0C
0C
ENDCHAR
STARTCHAR bracketright
ENCODING 93
SWIDTH 615 0
DWIDTH 8 0
BBX 6 13 0 -2
BITMAP
3C
0C
0C
0C
18
18
18
18
18
30
30
30
F0
ENDCHAR
STARTCHAR asciicircum
ENCODING 94
SWIDTH 615 0
DWIDTH 8 0
BBX 6 5 1 5
BITMAP
18
38
6C
CC
CC
ENDCHAR
STARTCHAR underscore
ENCODING 95
SWIDTH 615 0
DWIDTH 8 0
BBX 8 1 0 -1
BITMAP
FF
ENDCHAR
STARTCHAR grave
ENCODING 96
SWIDTH 615 0
DWIDTH 8 0
BBX 4 3 2 8
BITMAP
E0
60
30
ENDCHAR
STARTCHAR a
ENCODING 97
SWIDTH 615 0
DWIDTH 8 0
BBX 7 7 0 0
BITMAP
3C
06
06
7C
CC
CC
7C
ENDCHAR
STARTCHAR b
ENCODING 98
SWIDTH 615 0
DWIDTH 8 0
BBX 7 10 0 0
BITMAP
30
30
30
3C
66
66
66
CC
CC
F8
ENDCHAR
STARTCHAR c
ENCODING 99
SWIDTH 615 0
DWIDTH 8 0
BBX 7 7 0 0
BITMAP
3C
66
60
C0
C0
CC
78
ENDCHAR
STARTCHAR d
ENCODING 100
SWIDTH 615 0
DWIDTH 8 0
BBX 8 10 0 0
BITMAP
03
03
03
3E
66
66
C6
CC
CC
7C
ENDCHAR
STARTCHAR e
ENCODING 101
SWIDTH 615 0
DWIDTH 8 0
BBX 7 7 0 0
BITMAP
3C
66
66
FE
C0
CC
78
ENDCHAR
STARTCHAR f
ENCODING 102
SWIDTH 615 0
DWIDTH 8 0
BBX 6 10 1 0
BITMAP
1C
30
30
F8
60
60
60
C0
C0
C0
ENDCHAR
STARTCHAR g
ENCODING 103
SWIDTH 615 0
DWIDTH 8 0
BBX 7 11 0 -4
BITMAP
3E
66
66
C6
CC
CC
7C
0C
18
18
F0
ENDCHAR
STARTCHAR h
ENCODING 104
SWIDTH 615 0
DWIDTH 8 0
BBX 7 10 0 0
BITMAP
30
30
30
7C
66
66
66
CC
CC
CC
ENDCHAR
STARTCHAR i
ENCODING 105
SWIDTH 615 0
DWIDTH 8 0
BBX 5 11 1 0
BITMAP
18
18
00
00
70
30
30
60
60
60
F0
ENDCHAR
STARTCHAR j
ENCODING 106
SWIDTH 615 0
DWIDTH 8 0
BBX 7 13 0 -2
BITMAP
06
06
00
00
1C
0C
0C
0C
0C
18
18
18
F0
ENDCHAR
STARTCHAR k
ENCODING 107
SWIDTH 615 0
DWIDTH 8 0
BBX 7 10 0 0
BITMAP
30
30
30
66
6C
78
70
D8
D8
CC
ENDCHAR
STARTCHAR l
ENCODING 108
SWIDTH 615 0
DWIDTH 8 0
BBX 4 10 2 0
BITMAP
70
30
30
60
60
60
60
C0
C0
E0
ENDCHAR
STARTCHAR m
ENCODING 109
SWIDTH 615 0
DWIDTH 8 0
BBX 7 7 0 0
BITMAP
64
7E
7E
D6
D6
CC
CC
ENDCHAR
STARTCHAR n
ENCODING 110
SWIDTH 615 0
DWIDTH 8 0
BBX 7 7 0 0
BITMAP
7C
66
66
66
CC
CC
CC
ENDCHAR
STARTCHAR o
ENCODING 111
SWIDTH 615 0
DWIDTH 8 0
BBX 7 7 0 0
BITMAP
3C
66
66
C6
CC
CC
78
ENDCHAR
STARTCHAR p
ENCODING 112
SWIDTH 615 0
DWIDTH 8 0
BBX 7 11 0 -4
BITMAP
3C
36
36
36
6C
6C
78
60
C0
C0
C0
ENDCHAR
STARTCHAR q
ENCODING 113
SWIDTH 615 0
DWIDTH 8 0
BBX 7 11 0 -4
BITMAP
3E
66
66
C6
CC
CC
7C
0C
18
18
18
ENDCHAR
STARTCHAR r
ENCODING 114
SWIDTH 615 0
DWIDTH 8 0
BBX 7 7 0 0
BITMAP
6C
76
60
60
C0
C0
C0
ENDCHAR
STARTCHAR s
ENCODING 115
SWIDTH 615 0
DWIDTH 8 0
BBX 7 7 0 0
BITMAP
3C
66
60
38
0C
CC
78
ENDCHAR
STARTCHAR t
ENCODING 116
SWIDTH 615 0
DWIDTH 8 0
BBX 5 10 1 0
BITMAP
30
30
30
F8
60
60
C0
C0
C0
78
ENDCHAR
STARTCHAR u
ENCODING 117
SWIDTH 615 0
DWIDTH 8 0
BBX 7 7 0 0
BITMAP
66
66
66
CC
CC
CC
7C
ENDCHAR
STARTCHAR v
ENCODING 118
SWIDTH 615 0
DWIDTH 8 0
BBX 6 7 1 0
BITMAP
CC
CC
D8
D8
F0
60
60
ENDCHAR
STARTCHAR w
ENCODING 119
SWIDTH 615 0
DWIDTH 8 0
BBX 8 7 0 0
BITMAP
63
63
D6
D6
FE
FC
48
ENDCHAR
STARTCHAR x
ENCODING 120
SWIDTH 615 0
DWIDTH 8 0
BBX 8 7 0 0
BITMAP
33
36
3C
18
3C
6C
CC
ENDCHAR
STARTCHAR y
ENCODING 121
SWIDTH 615 0
DWIDTH 8 0
BBX 7 11 0 -4
BITMAP
66
66
66
CC
CC
CC
7C
18
18
18
F0
ENDCHAR
STARTCHAR z
ENCODING 122
SWIDTH 615 0
DWIDTH 8 0
BBX 7 7 0 0
BITMAP
7E
06
0C
38
60
C0
FC
ENDCHAR
STARTCHAR braceleft
ENCODING 123
SWIDTH 615 0
DWIDTH 8 0
BBX 7 13 1 -2
BITMAP
0E
18
18
18
30
30
E0
30
30
60
60
60
38
ENDCHAR
STARTCHAR bar
ENCODING 124
SWIDTH 615 0
DWIDTH 8 0
BBX 4 13 2 -2
BITMAP
30
30
30
30
60
60
60
60
60
C0
C0
C0
C0
ENDCHAR
STARTCHAR braceright
ENCODING 125
SWIDTH 615 0
DWIDTH 8 0
BBX 7 13 0 -2
BITMAP
38
0C
0C
0C
18
18
0E
18
18
30
30
30
E0
ENDCHAR
STARTCHAR asciitilde
ENCODING 126
SWIDTH 615 0
DWIDTH 8 0
BBX 6 3 1 3
BITMAP
64
FC
98
ENDCHAR
STARTCHAR uni007F
ENCODING 127
SWIDTH 615 0
DWIDTH 8 0
BBX 1 1 7 -4
BITMAP
00
ENDCHAR
STARTCHAR uni00A0
ENCODING 160
SWIDTH 615 0
DWIDTH 8 0
BBX 1 1 7 -4
BITMAP
00
ENDCHAR
STARTCHAR exclamdown
ENCODING 161
SWIDTH 615 0
DWIDTH 8 0
BBX 4 10 2 0
BITMAP
30
30
00
00
60
60
60
C0
C0
C0
ENDCHAR
STARTCHAR cent
ENCODING 162
SWIDTH 615 0
DWIDTH 8 0
BBX 7 9 0 -1
BITMAP
08
3C
6A
68
C8
D0
D4
78
10
ENDCHAR
STARTCHAR sterling
ENCODING 163
SWIDTH 615 0
DWIDTH 8 0
BBX 8 9 0 0
BITMAP
0E
1B
18
30
7C
30
60
C0
FC
ENDCHAR
STARTCHAR currency
ENCODING 164
SWIDTH 615 0
DWIDTH 8 0
BBX 7 6 0 1
BITMAP
66
3C
34
68
78
CC
ENDCHAR
STARTCHAR yen
ENCODING 165
SWIDTH 615 0
DWIDTH 8 0
BBX 8 9 0 0
BITMAP
63
63
66
3C
38
30
FC
60
60
ENDCHAR
STARTCHAR brokenbar
ENCODING 166
SWIDTH 615 0
DWIDTH 8 0
BBX 6 14 1 -3
BITMAP
0C
0C
0C
18
18
18
00
00
60
60
60
C0
C0
C0
ENDCHAR
STARTCHAR section
ENCODING 167
SWIDTH 615 0
DWIDTH 8 0
BBX 8 9 0 0
BITMAP
1E
33
30
18
34
18
0C
CC
78
ENDCHAR
STARTCHAR dieresis
ENCODING 168
SWIDTH 615 0
DWIDTH 8 0
BBX 6 2 1 9
BITMAP
CC
CC
ENDCHAR
STARTCHAR copyright
ENCODING 169
SWIDTH 615 0
DWIDTH 8 0
BBX 8 9 0 0
BITMAP
1E
33
3B
76
76
6E
DC
CC
78
ENDCHAR
STARTCHAR ordfeminine
ENCODING 170
SWIDTH 615 0
DWIDTH 8 0
BBX 4 5 1 4
BITMAP
60
10
70
90
70
ENDCHAR
STARTCHAR guillemotleft
ENCODING 171
SWIDTH 615 0
DWIDTH 8 0
BBX 7 5 0 1
BITMAP
36
6C
D8
D8
6C
ENDCHAR
STARTCHAR logicalnot
ENCODING 172
SWIDTH 615 0
DWIDTH 8 0
BBX 5 4 1 1
BITMAP
F8
18
30
30
ENDCHAR
STARTCHAR uni00AD
ENCODING 173
SWIDTH 615 0
DWIDTH 8 0
BBX 1 1 7 -4
BITMAP
00
ENDCHAR
STARTCHAR registered
ENCODING 174
SWIDTH 615 0
DWIDTH 8 0
BBX 8 9 0 0
BITMAP
1E
21
39
56
7A
6E
AC
84
78
ENDCHAR
STARTCHAR macron
ENCODING 175
SWIDTH 615 0
DWIDTH 8 0
BBX 8 1 0 11
BITMAP
FF
ENDCHAR
STARTCHAR degree
ENCODING 176
SWIDTH 615 0
DWIDTH 8 0
BBX 5 4 1 7
BITMAP
70
D8
D8
70
ENDCHAR
STARTCHAR plusminus
ENCODING 177
SWIDTH 615 0
DWIDTH 8 0
BBX 7 7 0 1
BITMAP
18
18
FE
30
30
00
F8
ENDCHAR
STARTCHAR uni00B2
ENCODING 178
SWIDTH 615 0
DWIDTH 8 0
BBX 5 6 1 5
BITMAP
F0
18
30
60
C0
F8
ENDCHAR
STARTCHAR uni00B3
ENCODING 179
SWIDTH 615 0
DWIDTH 8 0
BBX 5 6 1 5
BITMAP
F0
18
70
18
18
F0
ENDCHAR
STARTCHAR acute
ENCODING 180
SWIDTH 615 0
DWIDTH 8 0
BBX 4 3 2 8
BITMAP
70
60
C0
ENDCHAR
STARTCHAR uni00B5
ENCODING 181
SWIDTH 615 0
DWIDTH 8 0
BBX 7 10 0 -3
BITMAP
36
36
36
6C
6C
7C
68
60
60
C0
ENDCHAR
STARTCHAR paragraph
ENCODING 182
SWIDTH 615 0
DWIDTH 8 0
BBX 6 11 1 -2
BITMAP
7C
E8
E8
E8
68
28
28
28
28
28
28
ENDCHAR
STARTCHAR periodcentered
ENCODING 183
SWIDTH 615 0
DWIDTH 8 0
BBX 3 3 2 3
BITMAP
40
E0
40
ENDCHAR
STARTCHAR cedilla
ENCODING 184
SWIDTH 615 0
DWIDTH 8 0
BBX 3 4 2 -3
BITMAP
E0
E0
60
C0
ENDCHAR
STARTCHAR uni00B9
ENCODING 185
SWIDTH 615 0
DWIDTH 8 0
BBX 4 6 1 5
BITMAP
60
E0
60
60
60
F0
ENDCHAR
STARTCHAR ordmasculine
ENCODING 186
SWIDTH 615 0
DWIDTH 8 0
BBX 5 6 1 5
BITMAP
70
D8
D8
D8
D8
70
ENDCHAR
STARTCHAR guillemotright
ENCODING 187
SWIDTH 615 0
DWIDTH 8 0
BBX 7 5 0 1
BITMAP
6C
36
36
6C
D8
ENDCHAR
STARTCHAR onequarter
ENCODING 188
SWIDTH 615 0
DWIDTH 8 0
BBX 6 12 1 -1
BITMAP
04
44
C8
48
50
10
20
24
4C
5C
84
84
ENDCHAR
STARTCHAR onehalf
ENCODING 189
SWIDTH 615 0
DWIDTH 8 0
BBX 6 12 1 -1
BITMAP
04
44
C8
48
50
10
20
28
54
44
88
9C
ENDCHAR
STARTCHAR threequarters
ENCODING 190
SWIDTH 615 0
DWIDTH 8 0
BBX 6 12 1 -1
BITMAP
04
C4
48
88
50
D0
20
24
4C
5C
84
84
ENDCHAR
STARTCHAR questiondown
ENCODING 191
SWIDTH 615 0
DWIDTH 8 0
BBX 6 10 0 0
BITMAP
0C
0C
00
18
18
30
60
C0
CC
78
ENDCHAR
STARTCHAR Agrave
ENCODING 192
SWIDTH 615 0
DWIDTH 8 0
BBX 7 11 0 0
BITMAP
0C
06
00
06
0E
16
36
7E
66
C6
C6
ENDCHAR
STARTCHAR Aacute
ENCODING 193
SWIDTH 615 0
DWIDTH 8 0
BBX 8 11 0 0
BITMAP
03
06
00
06
0E
16
36
7E
66
C6
C6
ENDCHAR
STARTCHAR Acircumflex
ENCODING 194
SWIDTH 615 0
DWIDTH 8 0
BBX 8 11 0 0
BITMAP
0E
1B
00
06
0E
16
36
7E
66
C6
C6
ENDCHAR
STARTCHAR Atilde
ENCODING 195
SWIDTH 615 0
DWIDTH 8 0
BBX 8 11 0 0
BITMAP
0D
16
00
06
0E
16
36
7E
66
C6
C6
ENDCHAR
STARTCHAR Adieresis
ENCODING 196
SWIDTH 615 0
DWIDTH 8 0
BBX 8 11 0 0
BITMAP
33
33
00
06
0E
16
36
7E
66
C6
C6
ENDCHAR
STARTCHAR Aring
ENCODING 197
SWIDTH 615 0
DWIDTH 8 0
BBX 8 12 0 0
BITMAP
0E
1B
0E
06
0E
1E
36
36
7E
66
C6
C6
ENDCHAR
STARTCHAR AE
ENCODING 198
SWIDTH 615 0
DWIDTH 8 0
BBX 8 9 0 0
BITMAP
0F
1E
34
2C
6E
78
D8
D8
DC
ENDCHAR
STARTCHAR Ccedilla
ENCODING 199
SWIDTH 615 0
DWIDTH 8 0
BBX 8 12 0 -3
BITMAP
1E
33
30
60
60
60
C0
CC
78
30
60
C0
ENDCHAR
STARTCHAR Egrave
ENCODING 200
SWIDTH 615 0
DWIDTH 8 0
BBX 8 11 0 0
BITMAP
0C
06
00
3F
30
60
7C
60
C0
C0
FC
ENDCHAR
STARTCHAR Eacute
ENCODING 201
SWIDTH 615 0
DWIDTH 8 0
BBX 8 11 0 0
BITMAP
06
0C
00
3F
30
60
7C
60
C0
C0
FC
ENDCHAR
STARTCHAR Ecircumflex
ENCODING 202
SWIDTH 615 0
DWIDTH 8 0
BBX 8 11 0 0
BITMAP
0E
1B
00
3F
30
60
7C
60
C0
C0
FC
ENDCHAR
STARTCHAR Edieresis
ENCODING 203
SWIDTH 615 0
DWIDTH 8 0
BBX 8 11 0 0
BITMAP
33
33
00
3F
30
60
7C
60
C0
C0
FC
ENDCHAR
STARTCHAR Igrave
ENCODING 204
SWIDTH 615 0
DWIDTH 8 0
BBX 8 11 0 0
BITMAP
0C
06
00
3F
0C
0C
18
18
30
30
F8
ENDCHAR
STARTCHAR Iacute
ENCODING 205
SWIDTH 615 0
DWIDTH 8 0
BBX 8 11 0 0
BITMAP
06
0C
00
3F
0C
0C
18
18
30
30
FC
ENDCHAR
STARTCHAR Icircumflex
ENCODING 206
SWIDTH 615 0
DWIDTH 8 0
BBX 8 11 0 0
BITMAP
0E
1B
00
3F
0C
0C
18
18
30
30
FC
ENDCHAR
STARTCHAR Idieresis
ENCODING 207
SWIDTH 615 0
DWIDTH 8 0
BBX 8 11 0 0
BITMAP
33
33
00
3F
0C
0C
18
18
30
30
FC
ENDCHAR
STARTCHAR Eth
ENCODING 208
SWIDTH 615 0
DWIDTH 8 0
BBX 7 8 0 0
BITMAP
3C
36
36
FE
6C
6C
6C
78
ENDCHAR
STARTCHAR Ntilde
ENCODING 209
SWIDTH 615 0
DWIDTH 8 0
BBX 8 11 0 0
BITMAP
0D
16
00
33
3B
6E
66
66
CC
CC
CC
ENDCHAR
STARTCHAR Ograve
ENCODING 210
SWIDTH 615 0
DWIDTH 8 0
BBX 7 11 0 0
BITMAP
18
0C
00
3C
66
66
66
CC
CC
CC
78
ENDCHAR
STARTCHAR Oacute
ENCODING 211
SWIDTH 615 0
DWIDTH 8 0
BBX 7 11 0 0
BITMAP
06
0C
00
3C
66
66
66
CC
CC
CC
78
ENDCHAR
STARTCHAR Ocircumflex
ENCODING 212
SWIDTH 615 0
DWIDTH 8 0
BBX 7 11 0 0
BITMAP
1C
36
00
3C
66
66
66
CC
CC
CC
78
ENDCHAR
STARTCHAR Otilde
ENCODING 213
SWIDTH 615 0
DWIDTH 8 0
BBX 8 11 0 0
BITMAP
0D
16
00
3C
66
66
66
CC
CC
CC
78
ENDCHAR
STARTCHAR Odieresis
ENCODING 214
SWIDTH 615 0
DWIDTH 8 0
BBX 8 11 0 0
BITMAP
33
33
00
3C
66
66
66
CC
CC
CC
78
ENDCHAR
STARTCHAR multiply
ENCODING 215
SWIDTH 615 0
DWIDTH 8 0
BBX 6 5 1 1
BITMAP
6C
78
30
78
D8
ENDCHAR
STARTCHAR Oslash
ENCODING 216
SWIDTH 615 0
DWIDTH 8 0
BBX 8 11 0 -1
BITMAP
01
1D
32
37
6B
76
D6
EC
4C
B8
80
ENDCHAR
STARTCHAR Ugrave
ENCODING 217
SWIDTH 615 0
DWIDTH 8 0
BBX 7 11 0 0
BITMAP
18
0C
00
66
66
66
66
CC
CC
CC
78
ENDCHAR
STARTCHAR Uacute
ENCODING 218
SWIDTH 615 0
DWIDTH 8 0
BBX 7 11 0 0
BITMAP
0C
18
00
66
66
66
66
CC
CC
CC
78
ENDCHAR
STARTCHAR Ucircumflex
ENCODING 219
SWIDTH 615 0
DWIDTH 8 0
BBX 7 11 0 0
BITMAP
1C
36
00
66
66
66
66
CC
CC
CC
78
ENDCHAR
STARTCHAR Udieresis
ENCODING 220
SWIDTH 615 0
DWIDTH 8 0
BBX 8 11 0 0
BITMAP
33
33
00
66
66
66
66
CC
CC
CC
78
ENDCHAR
STARTCHAR Yacute
ENCODING 221
SWIDTH 615 0
DWIDTH 8 0
BBX 7 11 1 0
BITMAP
0C
18
00
C6
CC
D8
F0
60
60
E0
E0
ENDCHAR
STARTCHAR Thorn
ENCODING 222
SWIDTH 615 0
DWIDTH 8 0
BBX 6 8 1 0
BITMAP
60
60
78
6C
6C
F8
C0
C0
ENDCHAR
STARTCHAR germandbls
ENCODING 223
SWIDTH 615 0
DWIDTH 8 0
BBX 8 10 0 -1
BITMAP
0E
1B
1E
3C
36
36
6C
6C
78
C0
ENDCHAR
STARTCHAR agrave
ENCODING 224
SWIDTH 615 0
DWIDTH 8 0
BBX 7 11 0 0
BITMAP
38
18
0C
00
3C
06
06
7C
CC
CC
7C
ENDCHAR
STARTCHAR aacute
ENCODING 225
SWIDTH 615 0
DWIDTH 8 0
BBX 7 11 0 0
BITMAP
0E
0C
18
00
3C
06
06
7C
CC
CC
7C
ENDCHAR
STARTCHAR acircumflex
ENCODING 226
SWIDTH 615 0
DWIDTH 8 0
BBX 8 11 0 0
BITMAP
0C
1E
33
00
3C
06
06
7C
CC
CC
7C
ENDCHAR
STARTCHAR atilde
ENCODING 227
SWIDTH 615 0
DWIDTH 8 0
BBX 7 11 0 0
BITMAP
1A
2C
00
00
3C
06
06
7C
CC
CC
7C
ENDCHAR
STARTCHAR adieresis
ENCODING 228
SWIDTH 615 0
DWIDTH 8 0
BBX 8 11 0 0
BITMAP
33
33
00
00
3C
06
06
7C
CC
CC
7C
ENDCHAR
STARTCHAR aring
ENCODING 229
SWIDTH 615 0
DWIDTH 8 0
BBX 7 11 0 0
BITMAP
1C
36
1C
00
3C
06
06
7C
CC
CC
7C
ENDCHAR
STARTCHAR ae
ENCODING 230
SWIDTH 615 0
DWIDTH 8 0
BBX 7 7 0 0
BITMAP
24
1A
1A
7E
B0
B4
68
ENDCHAR
STARTCHAR ccedilla
ENCODING 231
SWIDTH 615 0
DWIDTH 8 0
BBX 7 11 0 -4
BITMAP
3C
66
60
C0
C0
CC
78
30
30
60
C0
ENDCHAR
STARTCHAR egrave
ENCODING 232
SWIDTH 615 0
DWIDTH 8 0
BBX 7 11 0 0
BITMAP
38
18
0C
00
3C
66
66
FE
C0
CC
78
ENDCHAR
STARTCHAR eacute
ENCODING 233
SWIDTH 615 0
DWIDTH 8 0
BBX 7 11 0 0
BITMAP
0E
0C
18
00
3C
66
66
FE
C0
CC
78
ENDCHAR
STARTCHAR ecircumflex
ENCODING 234
SWIDTH 615 0
DWIDTH 8 0
BBX 8 11 0 0
BITMAP
0C
1E
33
00
3C
66
66
FE
C0
CC
78
ENDCHAR
STARTCHAR edieresis
ENCODING 235
SWIDTH 615 0
DWIDTH 8 0
BBX 8 11 0 0
BITMAP
33
33
00
00
3C
66
66
FE
C0
CC
78
ENDCHAR
STARTCHAR igrave
ENCODING 236
SWIDTH 615 0
DWIDTH 8 0
BBX 4 11 2 0
BITMAP
E0
60
30
00
70
30
30
60
60
60
F0
ENDCHAR
STARTCHAR iacute
ENCODING 237
SWIDTH 615 0
DWIDTH 8 0
BBX 6 11 2 0
BITMAP
1C
18
30
00
70
30
30
60
60
60
F0
ENDCHAR
STARTCHAR icircumflex
ENCODING 238
SWIDTH 615 0
DWIDTH 8 0
BBX 6 11 2 0
BITMAP
30
78
CC
00
70
30
30
60
60
60
F0
ENDCHAR
STARTCHAR idieresis
ENCODING 239
SWIDTH 615 0
DWIDTH 8 0
BBX 6 11 2 0
BITMAP
CC
CC
00
00
70
30
30
60
60
60
F0
ENDCHAR
STARTCHAR eth
ENCODING 240
SWIDTH 615 0
DWIDTH 8 0
BBX 7 11 0 0
BITMAP
1A
0C
16
06
06
3E
66
66
CC
CC
78
ENDCHAR
STARTCHAR ntilde
ENCODING 241
SWIDTH 615 0
DWIDTH 8 0
BBX 7 11 0 0
BITMAP
1A
2C
00
00
7C
66
66
66
CC
CC
CC
ENDCHAR
STARTCHAR ograve
ENCODING 242
SWIDTH 615 0
DWIDTH 8 0
BBX 7 11 0 0
BITMAP
38
18
0C
00
3C
66
66
C6
CC
CC
78
ENDCHAR
STARTCHAR oacute
ENCODING 243
SWIDTH 615 0
DWIDTH 8 0
BBX 7 11 0 0
BITMAP
0E
0C
18
00
3C
66
66
C6
CC
CC
78
ENDCHAR
STARTCHAR ocircumflex
ENCODING 244
SWIDTH 615 0
DWIDTH 8 0
BBX 8 11 0 0
BITMAP
0C
1E
33
00
3C
66
66
C6
CC
CC
78
ENDCHAR
STARTCHAR otilde
ENCODING 245
SWIDTH 615 0
DWIDTH 8 0
BBX 7 11 0 0
BITMAP
1A
2C
00
00
3C
66
66
C6
CC
CC
78
ENDCHAR
STARTCHAR odieresis
ENCODING 246
SWIDTH 615 0
DWIDTH 8 0
BBX 8 11 0 0
BITMAP
33
33
00
00
3C
66
66
C6
CC
CC
78
ENDCHAR
STARTCHAR divide
ENCODING 247
SWIDTH 615 0
DWIDTH 8 0
BBX 7 5 0 2
BITMAP
18
00
FE
00
30
ENDCHAR
STARTCHAR oslash
ENCODING 248
SWIDTH 615 0
DWIDTH 8 0
BBX 7 9 0 -1
BITMAP
02
3C
66
6E
D6
EC
CC
78
80
ENDCHAR
STARTCHAR ugrave
ENCODING 249
SWIDTH 615 0
DWIDTH 8 0
BBX 7 11 0 0
BITMAP
38
18
0C
00
66
66
66
CC
CC
CC
7C
ENDCHAR
STARTCHAR uacute
ENCODING 250
SWIDTH 615 0
DWIDTH 8 0
BBX 7 11 0 0
BITMAP
0E
0C
18
00
66
66
66
CC
CC
CC
7C
ENDCHAR
STARTCHAR ucircumflex
ENCODING 251
SWIDTH 615 0
DWIDTH 8 0
BBX 8 11 0 0
BITMAP
0C
1E
33
00
66
66
66
CC
CC
CC
7C
ENDCHAR
STARTCHAR udieresis
ENCODING 252
SWIDTH 615 0
DWIDTH 8 0
BBX 8 11 0 0
BITMAP
33
33
00
00
66
66
66
CC
CC
CC
7C
ENDCHAR
STARTCHAR yacute
ENCODING 253
SWIDTH 615 0
DWIDTH 8 0
BBX 7 15 0 -4
BITMAP
0E
0C
18
00
66
66
66
CC
CC
CC
7C
18
18
18
F0
ENDCHAR
STARTCHAR thorn
ENCODING 254
SWIDTH 615 0
DWIDTH 8 0
BBX 7 13 0 -3
BITMAP
30
30
30
3C
66
66
66
6C
CC
F8
C0
C0
C0
ENDCHAR
STARTCHAR ydieresis
ENCODING 255
SWIDTH 615 0
DWIDTH 8 0
BBX 8 14 0 -4
BITMAP
33
33
00
66
66
66
CC
CC
CC
7C
18
18
18
F0
ENDCHAR
STARTCHAR OE
ENCODING 338
SWIDTH 615 0
DWIDTH 8 0
BBX 8 9 0 0
BITMAP
1B
36
34
6C
6E
68
D8
D8
6C
ENDCHAR
STARTCHAR oe
ENCODING 339
SWIDTH 615 0
DWIDTH 8 0
BBX 7 7 0 0
BITMAP
34
5A
5A
BC
B0
B2
6C
ENDCHAR
STARTCHAR Scaron
ENCODING 352
SWIDTH 615 0
DWIDTH 8 0
BBX 8 11 0 0
BITMAP
1B
0E
1E
33
60
60
3C
06
06
CC
78
ENDCHAR
STARTCHAR scaron
ENCODING 353
SWIDTH 615 0
DWIDTH 8 0
BBX 7 10 0 0
BITMAP
36
1C
00
3C
66
60
38
0C
CC
78
ENDCHAR
STARTCHAR Ydieresis
ENCODING 376
SWIDTH 615 0
DWIDTH 8 0
BBX 7 11 1 0
BITMAP
66
66
00
C6
C6
CC
78
70
60
C0
C0
ENDCHAR
STARTCHAR Zcaron
ENCODING 381
SWIDTH 615 0
DWIDTH 8 0
BBX 8 11 0 0
BITMAP
1B
0E
3F
03
06
0C
18
30
60
C0
FC
ENDCHAR
STARTCHAR zcaron
ENCODING 382
SWIDTH 615 0
DWIDTH 8 0
BBX 7 10 0 0
BITMAP
36
1C
00
7E
0C
18
30
60
C0
FC
ENDCHAR
STARTCHAR florin
ENCODING 402
SWIDTH 615 0
DWIDTH 8 0
BBX 8 13 0 -2
BITMAP
07
0C
0C
0C
3E
18
18
18
18
30
30
30
E0
ENDCHAR
STARTCHAR circumflex
ENCODING 710
SWIDTH 615 0
DWIDTH 8 0
BBX 6 3 1 8
BITMAP
38
6C
CC
ENDCHAR
STARTCHAR tilde
ENCODING 732
SWIDTH 615 0
DWIDTH 8 0
BBX 5 2 1 7
BITMAP
68
B0
ENDCHAR
STARTCHAR endash
ENCODING 8211
SWIDTH 615 0
DWIDTH 8 0
BBX 6 1 1 3
BITMAP
FC
ENDCHAR
STARTCHAR emdash
ENCODING 8212
SWIDTH 615 0
DWIDTH 8 0
BBX 8 1 0 3
BITMAP
FF
ENDCHAR
STARTCHAR quoteleft
ENCODING 8216
SWIDTH 615 0
DWIDTH 8 0
BBX 4 3 2 8
BITMAP
E0
60
30
ENDCHAR
STARTCHAR quoteright
ENCODING 8217
SWIDTH 615 0
DWIDTH 8 0
BBX 4 3 2 8
BITMAP
70
60
C0
ENDCHAR
STARTCHAR quotesinglbase
ENCODING 8218
SWIDTH 615 0
DWIDTH 8 0
BBX 4 4 1 -2
BITMAP
30
30
60
C0
ENDCHAR
STARTCHAR quotedblleft
ENCODING 8220
SWIDTH 615 0
DWIDTH 8 0
BBX 6 3 1 8
BITMAP
D8
D8
6C
ENDCHAR
STARTCHAR quotedblright
ENCODING 8221
SWIDTH 615 0
DWIDTH 8 0
BBX 6 3 1 8
BITMAP
6C
6C
D8
ENDCHAR
STARTCHAR quotedblbase
ENCODING 8222
SWIDTH 615 0
DWIDTH 8 0
BBX 6 3 1 -1
BITMAP
CC
CC
CC
ENDCHAR
STARTCHAR dagger
ENCODING 8224
SWIDTH 615 0
DWIDTH 8 0
BBX 6 11 1 0
BITMAP
18
18
18
FC
30
30
30
30
60
60
60
ENDCHAR
STARTCHAR daggerdbl
ENCODING 8225
SWIDTH 615 0
DWIDTH 8 0
BBX 6 11 1 0
BITMAP
18
18
18
FC
30
30
FC
30
60
60
60
ENDCHAR
STARTCHAR bullet
ENCODING 8226
SWIDTH 615 0
DWIDTH 8 0
BBX 6 5 1 1
BITMAP
30
78
FC
78
30
ENDCHAR
STARTCHAR ellipsis
ENCODING 8230
SWIDTH 615 0
DWIDTH 8 0
BBX 5 1 1 0
BITMAP
A8
ENDCHAR
STARTCHAR perthousand
ENCODING 8240
SWIDTH 615 0
DWIDTH 8 0
BBX 5 8 1 0
BITMAP
90
90
20
20
40
40
A8
A8
ENDCHAR
STARTCHAR guilsinglleft
ENCODING 8249
SWIDTH 615 0
DWIDTH 8 0
BBX 4 5 1 1
BITMAP
30
60
C0
C0
60
ENDCHAR
STARTCHAR guilsinglright
ENCODING 8250
SWIDTH 615 0
DWIDTH 8 0
BBX 4 5 1 1
BITMAP
60
30
30
60
C0
ENDCHAR
STARTCHAR Euro
ENCODING 8364
SWIDTH 615 0
DWIDTH 8 0
BBX 7 7 0 0
BITMAP
1C
36
78
30
F8
6C
38
ENDCHAR
STARTCHAR trademark
ENCODING 8482
SWIDTH 615 0
DWIDTH 8 0
BBX 6 4 1 5
BITMAP
F4
5C
54
54
ENDCHAR
STARTCHAR NameMe.129
ENCODING -1
SWIDTH 615 0
DWIDTH 8 0
BBX 1 1 7 -4
BITMAP
00
ENDCHAR
STARTCHAR NameMe.141
ENCODING -1
SWIDTH 615 0
DWIDTH 8 0
BBX 1 1 7 -4
BITMAP
00
ENDCHAR
STARTCHAR NameMe.143
ENCODING -1
SWIDTH 615 0
DWIDTH 8 0
BBX 1 1 7 -4
BITMAP
00
ENDCHAR
STARTCHAR NameMe.144
ENCODING -1
SWIDTH 615 0
DWIDTH 8 0
BBX 1 1 7 -4
BITMAP
00
ENDCHAR
STARTCHAR NameMe.157
ENCODING -1
SWIDTH 615 0
DWIDTH 8 0
BBX 1 1 7 -4
BITMAP
00
ENDCHAR
ENDFONT
